M48
;DRILL file {KiCad 4.0.7} date 05/02/18 00:14:46
;FORMAT={3:3/ absolute / metric / suppress leading zeros}
FMAT,2
METRIC,TZ
T1C0.300
T2C1.000
T3C1.650
%
G90
G05
M71
T1
X690Y17923
X1071Y9160
X1777Y27774
X1777Y26885
X2544Y9287
X2595Y17796
X2666Y27774
X2666Y26885
X3433Y9287
X3865Y17796
X4322Y9287
X5211Y9287
X6024Y19955
X6024Y11700
X6100Y9287
X7040Y19828
X8259Y8017
X8259Y7128
X9021Y5731
X9021Y4842
X9021Y3953
X9021Y3064
X9148Y7128
X9621Y33024
X9621Y32135
X10088Y9541
X10342Y3318
X10510Y33024
X10510Y32135
X11698Y13708
X11898Y19508
X12498Y14508
X13390Y24908
X13498Y15608
X14104Y8786
X14104Y7897
X14598Y22008
X14975Y8801
X14975Y7912
X15425Y25207
X15425Y24318
X15670Y20025
X15864Y8801
X15864Y7912
X16075Y32229
X16314Y25207
X16314Y24318
X16520Y16975
X16620Y20575
X16753Y8801
X16753Y7912
X16768Y12335
X16768Y11446
X16768Y10557
X16768Y9668
X16775Y13173
X16964Y32229
X17203Y25207
X17203Y24318
X17570Y18025
X17642Y8801
X17642Y7912
X17657Y12335
X17657Y11446
X17657Y10557
X17657Y9668
X17664Y13173
X17853Y32229
X18092Y25207
X18092Y24318
X18343Y30496
X18531Y8801
X18531Y7912
X18546Y12335
X18546Y11446
X18546Y10557
X18546Y9668
X18553Y13173
X18742Y32229
X18981Y25207
X18981Y24318
X19420Y8801
X19420Y7912
X19435Y12335
X19435Y11446
X19435Y10557
X19435Y9668
X19442Y13173
X19631Y32229
X19870Y25207
X19870Y24318
X20197Y21098
X20197Y20209
X20248Y30369
X20398Y22108
X20520Y32229
X21054Y7316
X21054Y6516
X21086Y21098
X21086Y20209
X21204Y22116
X21854Y7316
X21854Y6516
X22098Y21808
X22280Y30623
X22654Y7316
X22654Y6516
X22725Y24646
X23354Y21841
X23454Y7316
X23454Y6516
X23614Y24646
X24064Y27290
X24064Y26401
X24064Y25512
X24129Y21841
X24503Y24646
X24953Y27290
X24953Y26401
X24953Y25512
X25070Y23375
X25392Y24646
X25709Y4715
X25842Y27290
X25842Y26401
X25842Y25512
X26281Y24646
X26323Y22883
X27170Y24646
X29004Y18166
X29245Y9638
X29245Y8749
X29245Y7860
X29245Y6971
X29754Y18966
X29754Y18166
X30154Y2302
X30234Y12407
X30535Y30496
X30554Y18166
X30556Y18969
X30866Y24969
X30866Y24080
X30866Y23191
X31034Y12382
X31404Y4866
X31504Y7016
X31529Y16366
X31551Y1667
X31834Y12357
X32354Y16366
X32440Y31004
X32495Y9505
X32495Y8616
X32629Y12366
X32629Y11566
X32629Y10766
X33154Y16366
X33384Y9505
X33384Y8616
X33429Y12341
X33429Y11541
X33429Y10741
X33591Y34083
X33591Y33194
X33954Y16366
X34480Y34083
X34480Y33194
X34726Y7255
X34754Y16366
X35369Y34083
X35369Y33194
X36258Y34083
X36258Y33194
X36377Y5985
X36836Y20556
X36836Y19667
X36836Y18778
X36836Y17889
X37147Y34083
X37147Y33194
X38028Y11700
X38036Y34083
X38036Y33194
X38155Y17542
X38695Y5183
X39044Y2683
X39552Y31512
X39584Y5183
X39699Y18824
X39699Y17935
X40045Y1944
X40473Y5183
X40588Y18824
X40588Y17935
X40934Y1944
X40949Y11700
X41362Y5183
X41823Y1944
X41854Y19316
X42251Y5183
X42712Y1944
X43140Y5183
X43235Y27829
X43541Y32961
X43541Y32072
X43601Y1944
X43943Y19764
X43943Y18875
X43943Y17986
X44430Y32961
X44430Y32072
X44490Y1944
X44832Y19764
X44832Y18875
X44832Y17986
X45319Y32961
X45319Y32072
X45721Y19764
X45721Y18875
X45721Y17986
X46208Y32961
X46208Y32072
X47097Y32961
X47097Y32072
X47554Y19216
X47986Y32961
X47986Y32072
X48315Y10303
X49077Y30496
X49791Y20856
X49791Y19967
X49791Y19078
X49791Y18189
X50220Y11700
X50680Y20856
X50680Y19967
X50680Y19078
X50680Y18189
X50982Y25670
X50998Y4629
X50998Y3740
X50998Y2851
X51569Y20856
X51569Y19967
X51569Y19078
X51569Y18189
X51744Y9541
X51887Y4629
X51887Y3740
X51887Y2851
X52458Y20856
X52458Y19967
X52458Y19078
X52458Y18189
X52776Y4629
X52776Y3740
X52776Y2851
X53347Y20856
X53347Y19967
X53347Y19078
X53347Y18189
X58094Y25924
X58094Y23257
X58723Y1338
X59612Y1338
X60501Y1338
X61390Y1338
X62473Y17049
X62473Y16160
X62473Y15271
X63362Y17049
X63362Y16160
X63362Y15271
X64251Y17049
X64251Y16160
X64251Y15271
X64698Y25543
X65140Y17049
X65140Y16160
X65140Y15271
X65351Y23805
X65351Y22916
X66240Y23805
X66240Y22916
X66252Y9856
X66252Y8967
X67141Y9856
X67141Y8967
X68030Y9856
X68030Y8967
X68415Y20529
X68415Y19640
X68415Y18751
X68919Y9856
X68919Y8967
X69304Y20529
X69304Y19640
X69304Y18751
X69808Y9856
X69808Y8967
X70193Y20529
X70193Y19640
X70193Y18751
X70697Y9856
X70697Y8967
T2
X9834Y29226
X9834Y26686
X9834Y19066
X9834Y16526
X9834Y13986
X9834Y11446
X12374Y3826
X14914Y3826
X45394Y3826
X47934Y3826
X53014Y31766
X55554Y31766
X55554Y8906
X55554Y6366
X55554Y3826
X58094Y31766
X58094Y8906
X58094Y6366
X58094Y3826
X60634Y31766
X60634Y8906
X60634Y6366
X60634Y3826
X63174Y8906
X63174Y6366
X63174Y3826
T3
X51098Y14908
X55698Y14908
T0
M30
