G04 #@! TF.FileFunction,Paste,Top*
%FSLAX46Y46*%
G04 Gerber Fmt 4.6, Leading zero omitted, Abs format (unit mm)*
G04 Created by KiCad (PCBNEW 4.0.7) date 05/02/18 00:14:41*
%MOMM*%
%LPD*%
G01*
G04 APERTURE LIST*
%ADD10C,0.100000*%
%ADD11R,0.900000X0.500000*%
%ADD12R,1.000000X3.500000*%
%ADD13R,1.500000X3.400000*%
%ADD14R,3.200000X1.600000*%
%ADD15R,0.800000X0.900000*%
%ADD16R,0.750000X0.400000*%
%ADD17R,1.950000X1.500000*%
%ADD18R,0.800000X0.750000*%
%ADD19R,1.600000X1.000000*%
%ADD20R,3.000000X1.000000*%
%ADD21R,0.750000X0.800000*%
%ADD22R,0.600000X0.400000*%
%ADD23R,0.400000X0.600000*%
%ADD24R,1.050000X0.450000*%
%ADD25R,0.882000X0.537000*%
%ADD26R,1.390000X1.400000*%
%ADD27R,3.360000X4.860000*%
%ADD28R,0.800000X0.800000*%
%ADD29R,3.500000X1.000000*%
%ADD30R,3.400000X1.500000*%
%ADD31R,0.500000X0.900000*%
%ADD32R,0.900000X0.800000*%
G04 APERTURE END LIST*
D10*
D11*
X1070800Y16641000D03*
X1070800Y15141000D03*
D12*
X38709800Y27748000D03*
X36709800Y27748000D03*
X34709800Y27748000D03*
X32709800Y27748000D03*
X30709800Y27748000D03*
X28709800Y27748000D03*
D13*
X41059800Y33498000D03*
X26359800Y33498000D03*
D14*
X33870300Y22774500D03*
X33870300Y13874500D03*
D15*
X50153800Y27559000D03*
X48253800Y27559000D03*
X49203800Y25559000D03*
X64377800Y27559000D03*
X62477800Y27559000D03*
X63427800Y25559000D03*
D16*
X15320300Y18324500D03*
X13420300Y18974500D03*
X13420300Y17674500D03*
X13420300Y18324500D03*
X15320300Y17674500D03*
X15320300Y18974500D03*
D17*
X62922800Y13008000D03*
X65672800Y13008000D03*
D18*
X17420300Y14324500D03*
X15920300Y14324500D03*
D19*
X30897800Y11308000D03*
X30897800Y8308000D03*
D20*
X22120300Y8524500D03*
X22120300Y13124500D03*
D21*
X19120300Y20574500D03*
X19120300Y22074500D03*
D18*
X23670300Y20524500D03*
X22170300Y20524500D03*
D22*
X26320300Y20424500D03*
X26320300Y21324500D03*
X25070300Y21324500D03*
X25070300Y20424500D03*
D23*
X14520300Y15574500D03*
X15420300Y15574500D03*
D24*
X24795300Y14749500D03*
X24795300Y15399500D03*
X24795300Y16049500D03*
X24795300Y16699500D03*
X24795300Y17349500D03*
X24795300Y17999500D03*
X24795300Y18649500D03*
X24795300Y19299500D03*
X19245300Y19299500D03*
X19245300Y18649500D03*
X19245300Y17999500D03*
X19245300Y17349500D03*
X19245300Y16699500D03*
X19245300Y16049500D03*
X19245300Y15399500D03*
X19245300Y14749500D03*
D25*
X21285300Y18367000D03*
X21285300Y17472000D03*
X21285300Y16577000D03*
X21285300Y15682000D03*
X22755300Y18367000D03*
X22755300Y17472000D03*
X22755300Y16577000D03*
X22755300Y15682000D03*
D26*
X27190300Y12930500D03*
D27*
X26270300Y8948500D03*
D26*
X25350300Y12930500D03*
D28*
X70297800Y13808000D03*
X70297800Y12208000D03*
D21*
X17770300Y20574500D03*
X17770300Y22074500D03*
D29*
X63722800Y18808000D03*
X63722800Y20808000D03*
D30*
X69472800Y16458000D03*
X69472800Y23158000D03*
D18*
X13024800Y20836000D03*
X14524800Y20836000D03*
D31*
X65852800Y25543000D03*
X67352800Y25543000D03*
X57470800Y29099000D03*
X58970800Y29099000D03*
D11*
X68297800Y13758000D03*
X68297800Y12258000D03*
X14197800Y12058000D03*
X14197800Y10558000D03*
X12597800Y12058000D03*
X12597800Y10558000D03*
D15*
X57265800Y27559000D03*
X55365800Y27559000D03*
X56315800Y25559000D03*
D32*
X2610800Y25223000D03*
X2610800Y23323000D03*
X4610800Y24273000D03*
D15*
X46597800Y27559000D03*
X44697800Y27559000D03*
X45647800Y25559000D03*
X53709800Y27559000D03*
X51809800Y27559000D03*
X52759800Y25559000D03*
D32*
X2610800Y21540000D03*
X2610800Y19640000D03*
X4610800Y20590000D03*
D15*
X60821800Y27559000D03*
X58921800Y27559000D03*
X59871800Y25559000D03*
X36315800Y8414000D03*
X38215800Y8414000D03*
X37265800Y10414000D03*
X31743800Y2699000D03*
X33643800Y2699000D03*
X32693800Y4699000D03*
X22980800Y2699000D03*
X24880800Y2699000D03*
X23930800Y4699000D03*
D11*
X1070800Y25531000D03*
X1070800Y24031000D03*
D31*
X49850800Y29099000D03*
X51350800Y29099000D03*
D11*
X21390800Y3330000D03*
X21390800Y4830000D03*
X34725800Y8156000D03*
X34725800Y9656000D03*
X30153800Y3330000D03*
X30153800Y4830000D03*
X43996800Y8156000D03*
X43996800Y9656000D03*
D32*
X2610800Y16333000D03*
X2610800Y14433000D03*
X4610800Y15383000D03*
D15*
X35426800Y2699000D03*
X37326800Y2699000D03*
X36376800Y4699000D03*
X26536800Y2699000D03*
X28436800Y2699000D03*
X27486800Y4699000D03*
X39998800Y8414000D03*
X41898800Y8414000D03*
X40948800Y10414000D03*
D32*
X2610800Y12777000D03*
X2610800Y10877000D03*
X4610800Y11827000D03*
D15*
X45586800Y8414000D03*
X47486800Y8414000D03*
X46536800Y10414000D03*
X49269800Y8414000D03*
X51169800Y8414000D03*
X50219800Y10414000D03*
D31*
X44643800Y29099000D03*
X46143800Y29099000D03*
X47310800Y29099000D03*
X48810800Y29099000D03*
X52390800Y29099000D03*
X53890800Y29099000D03*
X54930800Y29099000D03*
X56430800Y29099000D03*
D11*
X1070800Y19332000D03*
X1070800Y20832000D03*
X6150800Y21745000D03*
X6150800Y23245000D03*
D31*
X60010800Y29099000D03*
X61510800Y29099000D03*
X62550800Y29099000D03*
X64050800Y29099000D03*
X37380800Y1159000D03*
X35880800Y1159000D03*
X34713800Y1159000D03*
X33213800Y1159000D03*
X28363800Y1032000D03*
X26863800Y1032000D03*
X25696800Y1032000D03*
X24196800Y1032000D03*
X41825800Y6874000D03*
X40325800Y6874000D03*
X39158800Y6874000D03*
X37658800Y6874000D03*
D11*
X1070800Y10569000D03*
X1070800Y12069000D03*
X6150800Y12982000D03*
X6150800Y14482000D03*
D31*
X51223800Y6874000D03*
X49723800Y6874000D03*
X48556800Y6874000D03*
X47056800Y6874000D03*
D12*
X21342800Y27748000D03*
X19342800Y27748000D03*
X17342800Y27748000D03*
X15342800Y27748000D03*
D13*
X23692800Y33498000D03*
X12992800Y33498000D03*
M02*
